<?xml version="1.0"?>
<svg height="70" width="430" >
 <g style="fill-opacity:1.0; stroke:black;
  stroke-width:1;">
  <circle cx="85" cy="46" r="3"
    style="fill:#f0f;"  />
  <circle cx="407" cy="20" r="3"
    style="fill:#f0f;"  />
  <circle cx="251" cy="58" r="3"
    style="fill:#f0f;"  />
  <circle cx="201" cy="6" r="3"
    style="fill:#f0f;"  />
  <circle cx="385" cy="62" r="3"
    style="fill:#f0f;"  />
  <circle cx="283" cy="61" r="3"
    style="fill:#f0f;"  />
  <circle cx="232" cy="34" r="3"
    style="fill:#f0f;"  />
  <circle cx="123" cy="46" r="3"
    style="fill:#f0f;"  />
  <circle cx="285" cy="52" r="3"
    style="fill:#f0f;"  />
  <circle cx="379" cy="66" r="3"
    style="fill:#f0f;"  />
  <circle cx="31" cy="9" r="3"
    style="fill:#f0f;"  />
  <circle cx="368" cy="22" r="3"
    style="fill:#f0f;"  />
  <circle cx="3" cy="51" r="3"
    style="fill:#f0f;"  />
  <circle cx="313" cy="60" r="3"
    style="fill:#f0f;"  />
  <circle cx="265" cy="31" r="3"
    style="fill:#f0f;"  />
  <circle cx="389" cy="50" r="3"
    style="fill:#f0f;"  />
  <circle cx="372" cy="27" r="3"
    style="fill:#f0f;"  />
  <circle cx="310" cy="61" r="3"
    style="fill:#f0f;"  />
  <circle cx="107" cy="63" r="3"
    style="fill:#f0f;"  />
  <circle cx="57" cy="33" r="3"
    style="fill:#f0f;"  />
  <circle cx="393" cy="13" r="3"
    style="fill:#f0f;"  />
  <circle cx="321" cy="45" r="3"
    style="fill:#f0f;"  />
  <circle cx="79" cy="26" r="3"
    style="fill:#f0f;"  />
  <circle cx="76" cy="29" r="3"
    style="fill:#f0f;"  />
  <circle cx="399" cy="34" r="3"
    style="fill:#f0f;"  />
  <circle cx="72" cy="55" r="3"
    style="fill:#f0f;"  />
  <circle cx="383" cy="16" r="3"
    style="fill:#f0f;"  />
  <circle cx="309" cy="47" r="3"
    style="fill:#f0f;"  />
  <circle cx="200" cy="21" r="3"
    style="fill:#f0f;"  />
  <circle cx="72" cy="40" r="3"
    style="fill:#f0f;"  />
 </g>
</svg>
